HIERARCHY
ROOT Hips
{
	OFFSET 0.00000 0.00000 0.00000
	CHANNELS 6 Xposition Yposition Zposition Zrotation Yrotation Xrotation 
	JOINT LHipJoint
	{
		OFFSET 0 0 0
		CHANNELS 3 Zrotation Yrotation Xrotation
		JOINT LeftUpLeg
		{
			OFFSET 1.88772 -1.62769 0.85636
			CHANNELS 3 Zrotation Yrotation Xrotation
			JOINT LeftLeg
			{
				OFFSET 2.39836 -6.58946 0.00000
				CHANNELS 3 Zrotation Yrotation Xrotation
				JOINT LeftFoot
				{
					OFFSET 2.78523 -7.65237 0.00000
					CHANNELS 3 Zrotation Yrotation Xrotation
					JOINT LeftToeBase
					{
						OFFSET 0.19551 -0.53715 1.90694
						CHANNELS 3 Zrotation Yrotation Xrotation
						End Site
						{
							OFFSET 0.00000 -0.00000 0.99735
						}
					}
				}
			}
		}
	}
	JOINT RHipJoint
	{
		OFFSET 0 0 0
		CHANNELS 3 Zrotation Yrotation Xrotation
		JOINT RightUpLeg
		{
			OFFSET -1.74282 -1.62769 0.85636
			CHANNELS 3 Zrotation Yrotation Xrotation
			JOINT RightLeg
			{
				OFFSET -2.36062 -6.48575 0.00000
				CHANNELS 3 Zrotation Yrotation Xrotation
				JOINT RightFoot
				{
					OFFSET -2.76258 -7.59014 0.00000
					CHANNELS 3 Zrotation Yrotation Xrotation
					JOINT RightToeBase
					{
						OFFSET -0.19308 -0.53048 2.03952
						CHANNELS 3 Zrotation Yrotation Xrotation
						End Site
						{
							OFFSET -0.00000 -0.00000 1.06031
						}
					}
				}
			}
		}
	}
	JOINT LowerBack
	{
		OFFSET 0 0 0
		CHANNELS 3 Zrotation Yrotation Xrotation
		JOINT Spine
		{
			OFFSET -0.08299 2.03160 -0.30721
			CHANNELS 3 Zrotation Yrotation Xrotation
			JOINT Spine1
			{
				OFFSET -0.01030 2.00603 0.13891
				CHANNELS 3 Zrotation Yrotation Xrotation
				JOINT Neck
				{
					OFFSET 0 0 0
					CHANNELS 3 Zrotation Yrotation Xrotation
					JOINT Neck1
					{
						OFFSET 0.04282 1.69578 0.19991
						CHANNELS 3 Zrotation Yrotation Xrotation
						JOINT Head
						{
							OFFSET -0.08665 1.66622 -0.03785
							CHANNELS 3 Zrotation Yrotation Xrotation
							End Site
							{
								OFFSET -0.03699 1.83329 -0.04094
							}
						}
					}
				}
				JOINT LeftShoulder
				{
					OFFSET 0 0 0
					CHANNELS 3 Zrotation Yrotation Xrotation
					JOINT LeftArm
					{
						OFFSET 3.04219 1.50803 -0.05347
						CHANNELS 3 Zrotation Yrotation Xrotation
						JOINT LeftForeArm
						{
							OFFSET 5.79199 -0.00000 0.00000
							CHANNELS 3 Zrotation Yrotation Xrotation
							JOINT LeftHand
							{
								OFFSET 3.49908 -0.00000 0.00000
								CHANNELS 3 Zrotation Yrotation Xrotation
								JOINT LeftFingerBase
								{
									OFFSET 0 0 0
									CHANNELS 3 Zrotation Yrotation Xrotation
									JOINT LeftHandIndex1
									{
										OFFSET 0.59386 -0.00000 0.00000
										CHANNELS 3 Zrotation Yrotation Xrotation
										End Site
										{
											OFFSET 0.47879 -0.00000 0.00000
										}
									}
								}
								JOINT LThumb
								{
									OFFSET 0 0 0
									CHANNELS 3 Zrotation Yrotation Xrotation
									End Site
									{
										OFFSET 0.48610 -0.00000 0.48610
									}
								}
							}
						}
					}
				}
				JOINT RightShoulder
				{
					OFFSET 0 0 0
					CHANNELS 3 Zrotation Yrotation Xrotation
					JOINT RightArm
					{
						OFFSET -3.30316 1.18853 0.11175
						CHANNELS 3 Zrotation Yrotation Xrotation
						JOINT RightForeArm
						{
							OFFSET -5.73799 -0.00000 0.00000
							CHANNELS 3 Zrotation Yrotation Xrotation
							JOINT RightHand
							{
								OFFSET -3.57916 -0.00000 -0.00000
								CHANNELS 3 Zrotation Yrotation Xrotation
								JOINT RightFingerBase
								{
									OFFSET 0 0 0
									CHANNELS 3 Zrotation Yrotation Xrotation
									JOINT RightHandIndex1
									{
										OFFSET -0.61558 -0.00000 0.00000
										CHANNELS 3 Zrotation Yrotation Xrotation
										End Site
										{
											OFFSET -0.49629 -0.00000 0.00000
										}
									}
								}
								JOINT RThumb
								{
									OFFSET 0 0 0
									CHANNELS 3 Zrotation Yrotation Xrotation
									End Site
									{
										OFFSET -0.50387 -0.00000 0.50387
									}
								}
							}
						}
					}
				}
			}
		}
	}
}
MOTION
Frames: 5
Frame Time: 0.010101
0.00 0.00 0.00 21.5550 -67.6021 -14.3951 0.0000 0.0000 0.0000 -17.2007 7.5614 -32.3072 6.8301 15.1872 48.2289 1.5872 -0.6511 -23.6370 0.6288 -5.0741 -14.1199 0.0000 0.0000 0.0000 -3.9142 18.3709 -27.4220 -6.1933 -14.6131 45.7525 -0.9536 10.1335 -17.7737 -0.9038 6.0586 -16.9546 -7.0699 -0.3001 8.0149 0.7746 -1.0762 -1.4094 4.9379 -0.2757 -5.8528 9.2550 4.9726 5.2634 -7.7176 7.1931 4.1922 -4.2186 3.7011 1.1093 -0.0000 -0.0000 0.0000 -38.0291 -39.9861 -6.3371 94.5170 -59.9228 -63.9108 -0.0000 0.0000 -21.4110 20.0103 -20.2651 -7.1892 -7.1250 0.0000 -0.0000 -5.4072 8.6055 4.5581 -0.0000 -0.0000 0.0000 93.4953 41.6260 67.1217 -145.5304 44.4297 -105.5592 0.0000 -0.0000 -29.8337 -14.9975 -14.2587 3.7752 7.1250 -0.0000 -0.0000 11.5038 -44.4122 0.1692
0.00 0.00 0.00 20.4725 -67.9720 -13.8368 0.0000 0.0000 0.0000 -16.7366 7.6086 -32.3808 7.0996 15.4152 49.2499 1.6260 -0.0935 -24.1051 0.8241 -5.7920 -16.1822 0.0000 0.0000 0.0000 -3.5694 17.7397 -27.7188 -6.3665 -14.7744 46.4356 -0.9005 10.9978 -17.4923 -0.7993 5.7062 -15.9344 -6.5759 -0.0996 8.2922 0.6031 -0.8007 -1.7565 4.4504 -0.1303 -6.4243 8.1484 4.7760 6.5673 -5.5696 6.9055 4.7949 -3.2888 3.5546 0.9127 -0.0000 -0.0000 0.0000 -29.1809 -46.6181 -13.5760 54.3654 -54.6113 -29.6979 -0.0000 0.0000 -23.0089 13.0993 -14.4808 -3.3301 -7.1250 0.0000 -0.0000 -9.7842 15.2745 6.9648 -0.0000 -0.0000 0.0000 93.5271 40.4342 65.2806 -145.5970 44.3811 -105.6058 0.0000 -0.0000 -30.1892 -15.2083 -13.0795 3.5204 7.1250 -0.0000 -0.0000 11.0164 -43.2440 0.4837
0.00 0.00 0.00 15.9022 -68.8776 -11.2403 0.0000 0.0000 0.0000 -14.9752 8.3645 -31.4668 7.6417 15.8493 51.2617 1.8608 -0.2815 -25.7387 1.3246 -7.2887 -20.5734 0.0000 0.0000 0.0000 -1.4400 16.2462 -25.6839 -6.1408 -14.5634 45.5443 -0.7622 11.9839 -16.5535 -0.8812 5.9844 -16.7392 -3.8401 0.2476 9.7121 0.0339 -0.1576 -2.3700 2.2258 0.1083 -7.9684 9.5306 4.3314 5.8564 -5.4313 6.3388 6.0565 -3.4709 3.2987 1.4553 -0.0000 -0.0000 0.0000 -39.7355 -46.0656 -10.6525 66.6230 -57.8309 -39.9024 -0.0000 0.0000 -53.5754 14.2215 -10.6230 -2.6749 -7.1250 0.0000 -0.0000 -9.0657 19.1017 5.6709 -0.0000 -0.0000 0.0000 94.5277 38.6536 62.7958 -146.4109 43.7780 -106.1720 0.0000 -0.0000 -31.6549 -13.0523 -14.2364 3.2630 7.1250 -0.0000 -0.0000 13.2402 -44.1632 0.2786
0.00 0.00 0.00 15.7394 -69.1291 -10.8349 0.0000 0.0000 0.0000 -15.2719 9.0032 -31.1535 7.5727 15.7958 51.0085 1.9537 -0.4717 -26.3212 1.3846 -7.4454 -21.0417 0.0000 0.0000 0.0000 -1.5532 16.3973 -24.7879 -5.8903 -14.3212 44.5398 -0.8062 12.2220 -16.9996 -0.9283 6.1377 -17.1845 -2.7810 0.2240 7.8848 -0.8063 -0.0611 -2.5910 0.7259 0.0715 -7.1525 9.9427 4.4317 4.9301 -3.4530 6.3193 6.3830 -2.8371 3.3066 1.6613 0.0000 0.0000 0.0000 -57.6065 -39.5333 -1.3544 102.3045 -59.4201 -70.6352 -0.0000 0.0000 -53.2704 15.6968 -10.5220 -2.9378 -7.1250 0.0000 -0.0000 -8.0268 19.1170 5.0045 0.0000 0.0000 0.0000 95.1145 38.1263 62.0220 -146.6947 43.5634 -106.3680 0.0000 -0.0000 -36.1483 -11.8185 -14.6979 3.0390 7.1250 -0.0000 -0.0000 14.4777 -44.4870 0.1874
0.00 0.00 0.00 7.7215 -54.2621 -3.4563 0.0000 0.0000 0.0000 -12.5225 -1.6527 -32.7106 8.6518 16.5783 54.8779 1.5168 -9.5114 -22.0964 0.5292 -4.6618 -12.9465 0.0000 0.0000 0.0000 2.0538 11.5072 -20.2473 -7.0268 -15.3544 48.9755 -1.9104 -1.4003 -26.6691 -2.4113 9.6748 -27.9301 -7.0085 -2.5293 8.1515 2.0606 -3.9843 -1.4637 6.6136 -1.7067 -5.4967 9.8107 5.4701 3.5386 -5.2496 7.6461 0.6207 -3.4513 3.8741 0.2062 0.0000 0.0000 0.0000 -31.5387 -47.9192 -10.9465 66.9510 -57.8943 -40.1801 -0.0000 0.0000 -30.9011 20.6639 -25.0193 -9.0626 -7.1250 0.0000 -0.0000 -5.4074 3.5712 5.0832 0.0000 0.0000 0.0000 85.5325 28.9258 55.2475 -157.3206 33.7364 -113.0406 0.0000 -0.0000 -43.2318 -13.4089 -24.3586 5.6156 7.1250 -0.0000 -0.0000 16.8199 -54.1466 -3.8647
